<svg xmlns="http://www.w3.org/2000/svg" viewBox="0 0 64 64">
  <defs>
    <linearGradient id="bg" x1="0" y1="0" x2="1" y2="1">
      <stop offset="0%" stop-color="#10b981"/>
      <stop offset="100%" stop-color="#059669"/>
    </linearGradient>
  </defs>
  <!-- Background -->
  <rect x="0" y="0" width="64" height="64" rx="16" fill="url(#bg)"/>
  <!-- Left bubble -->
  <path d="M10 23 a6 6 0 0 1 6-6 h14 a6 6 0 0 1 6 6 v8 a6 6 0 0 1-6 6 h-5 l-5 6 v-6 h-4 a6 6 0 0 1-6-6 z" fill="white" opacity="0.92"/>
  <!-- Right bubble -->
  <path d="M24 31 a5 5 0 0 1 5-5 h8 a5 5 0 0 1 5 5 v6 a5 5 0 0 1-5 5 h-3 l-3 4 v-4 h-2 a5 5 0 0 1-5-5 z" fill="white" opacity="0.6"/>
</svg>
